<svg width="729" height="275" viewBox="0 0 729 275" fill="none" xmlns="http://www.w3.org/2000/svg">
<g opacity="0.1">
<path fill-rule="evenodd" clip-rule="evenodd" d="M59.3438 156.251C59.3438 157.88 59.3438 159.276 59.3438 160.672C59.3438 270.966 59.3438 381.028 59.3438 491.322C59.3438 499.932 57.0355 504.585 50.6434 505.516C44.6065 506.447 38.392 505.749 32 505.749C32 504.353 32 502.956 32 501.56C32 391.499 32 281.437 32 171.143C32 162.068 34.4858 157.415 41.0554 156.484C46.9147 155.553 53.1293 156.251 59.3438 156.251Z" fill="#D1E7DD"/>
<path fill-rule="evenodd" clip-rule="evenodd" d="M20.3438 156.251C20.3438 157.88 20.3438 159.276 20.3438 160.672C20.3438 270.966 20.3438 381.028 20.3438 491.322C20.3438 499.932 18.0355 504.585 11.6434 505.516C5.6065 506.447 -0.607958 505.749 -7 505.749C-7 504.353 -7 502.956 -7 501.56C-7 391.499 -7 281.437 -7 171.143C-7 162.068 -4.51422 157.415 2.05538 156.484C7.91475 155.553 14.1293 156.251 20.3438 156.251Z" fill="#D1E7DD"/>
<path fill-rule="evenodd" clip-rule="evenodd" d="M98.6875 131.251C98.6875 132.88 98.6875 134.276 98.6875 135.672C98.6875 245.966 98.6875 356.028 98.6875 466.322C98.6875 474.932 96.3792 479.585 89.9872 480.516C83.9502 481.447 77.7358 480.749 71.3438 480.749C71.3438 479.353 71.3438 477.956 71.3438 476.56C71.3438 366.499 71.3438 256.437 71.3438 146.143C71.3438 137.068 73.8295 132.415 80.3991 131.484C86.2585 130.553 92.473 131.251 98.6875 131.251Z" fill="#D1E7DD"/>
<path fill-rule="evenodd" clip-rule="evenodd" d="M138.031 156.251C138.031 157.88 138.031 159.276 138.031 160.672C138.031 270.966 138.031 381.028 138.031 491.322C138.031 499.932 135.723 504.585 129.331 505.516C123.294 506.447 117.08 505.749 110.688 505.749C110.688 504.353 110.688 502.956 110.688 501.56C110.688 391.499 110.688 281.437 110.688 171.143C110.688 162.068 113.173 157.415 119.743 156.484C125.602 155.553 131.817 156.251 138.031 156.251Z" fill="#D1E7DD"/>
<path fill-rule="evenodd" clip-rule="evenodd" d="M177.375 146.251C177.375 147.88 177.375 149.276 177.375 150.672C177.375 260.966 177.375 371.028 177.375 481.322C177.375 489.932 175.067 494.585 168.675 495.516C162.638 496.447 156.423 495.749 150.031 495.749C150.031 494.353 150.031 492.956 150.031 491.56C150.031 381.499 150.031 271.437 150.031 161.143C150.031 152.068 152.517 147.415 159.087 146.484C164.946 145.553 171.161 146.251 177.375 146.251Z" fill="#D1E7DD"/>
<path fill-rule="evenodd" clip-rule="evenodd" d="M216.719 126.251C216.719 127.88 216.719 129.276 216.719 130.672C216.719 240.966 216.719 351.028 216.719 461.322C216.719 469.932 214.41 474.585 208.018 475.516C201.981 476.447 195.767 475.749 189.375 475.749C189.375 474.353 189.375 472.956 189.375 471.56C189.375 361.499 189.375 251.437 189.375 141.143C189.375 132.068 191.861 127.415 198.43 126.484C204.29 125.553 210.504 126.251 216.719 126.251Z" fill="#D1E7DD"/>
<path fill-rule="evenodd" clip-rule="evenodd" d="M256.062 96.2513C256.062 97.8801 256.062 99.2762 256.062 100.672C256.062 210.966 256.062 321.028 256.062 431.322C256.062 439.932 253.754 444.585 247.362 445.516C241.325 446.447 235.111 445.749 228.719 445.749C228.719 444.353 228.719 442.956 228.719 441.56C228.719 331.499 228.719 221.437 228.719 111.143C228.719 102.068 231.205 97.4147 237.774 96.484C243.633 95.5532 249.848 96.2513 256.062 96.2513Z" fill="#D1E7DD"/>
<path fill-rule="evenodd" clip-rule="evenodd" d="M295.406 84.2513C295.406 85.8801 295.406 87.2762 295.406 88.6724C295.406 198.966 295.406 309.028 295.406 419.322C295.406 427.932 293.098 432.585 286.706 433.516C280.669 434.447 274.455 433.749 268.062 433.749C268.062 432.353 268.062 430.956 268.062 429.56C268.062 319.499 268.062 209.437 268.062 99.1433C268.062 90.0685 270.548 85.4147 277.118 84.484C282.977 83.5532 289.192 84.2513 295.406 84.2513Z" fill="#D1E7DD"/>
<path fill-rule="evenodd" clip-rule="evenodd" d="M334.75 71.2513C334.75 72.8801 334.75 74.2762 334.75 75.6724C334.75 185.966 334.75 296.028 334.75 406.322C334.75 414.932 332.442 419.585 326.05 420.516C320.013 421.447 313.798 420.749 307.406 420.749C307.406 419.353 307.406 417.956 307.406 416.56C307.406 306.499 307.406 196.437 307.406 86.1433C307.406 77.0685 309.892 72.4147 316.462 71.484C322.321 70.5532 328.536 71.2513 334.75 71.2513Z" fill="#D1E7DD"/>
<path fill-rule="evenodd" clip-rule="evenodd" d="M374.094 91.2513C374.094 92.8801 374.094 94.2762 374.094 95.6724C374.094 205.966 374.094 316.028 374.094 426.322C374.094 434.932 371.785 439.585 365.393 440.516C359.356 441.447 353.142 440.749 346.75 440.749C346.75 439.353 346.75 437.956 346.75 436.56C346.75 326.499 346.75 216.437 346.75 106.143C346.75 97.0685 349.236 92.4147 355.805 91.484C361.665 90.5532 367.879 91.2513 374.094 91.2513Z" fill="#D1E7DD"/>
<path fill-rule="evenodd" clip-rule="evenodd" d="M413.438 96.2513C413.438 97.8801 413.438 99.2762 413.438 100.672C413.438 210.966 413.438 321.028 413.438 431.322C413.438 439.932 411.129 444.585 404.737 445.516C398.7 446.447 392.486 445.749 386.094 445.749C386.094 444.353 386.094 442.956 386.094 441.56C386.094 331.499 386.094 221.437 386.094 111.143C386.094 102.068 388.58 97.4147 395.149 96.484C401.008 95.5532 407.223 96.2513 413.438 96.2513Z" fill="#D1E7DD"/>
<path fill-rule="evenodd" clip-rule="evenodd" d="M452.781 141.251C452.781 142.88 452.781 144.276 452.781 145.672C452.781 255.966 452.781 276.028 452.781 386.322C452.781 394.932 450.473 399.585 444.081 400.516C438.044 401.447 431.83 400.749 425.438 400.749C425.438 399.353 425.438 397.956 425.438 396.56C425.438 286.499 425.438 266.437 425.438 156.143C425.438 147.068 427.923 142.415 434.493 141.484C440.352 140.553 446.567 141.251 452.781 141.251Z" fill="#D1E7DD"/>
<path fill-rule="evenodd" clip-rule="evenodd" d="M492.125 91.2513C492.125 92.8801 492.125 94.2762 492.125 95.6724C492.125 205.966 492.125 276.028 492.125 386.322C492.125 394.932 489.817 399.585 483.425 400.516C477.388 401.447 471.173 400.749 464.781 400.749C464.781 399.353 464.781 397.956 464.781 396.56C464.781 286.499 464.781 216.437 464.781 106.143C464.781 97.0685 467.267 92.4147 473.837 91.484C479.696 90.5532 485.911 91.2513 492.125 91.2513Z" fill="#D1E7DD"/>
<path fill-rule="evenodd" clip-rule="evenodd" d="M531.469 71.2513C531.469 72.8801 531.469 74.2762 531.469 75.6724C531.469 185.966 531.469 296.028 531.469 406.322C531.469 414.932 529.16 419.585 522.768 420.516C516.731 421.447 510.517 420.749 504.125 420.749C504.125 419.353 504.125 417.956 504.125 416.56C504.125 306.499 504.125 196.437 504.125 86.1433C504.125 77.0685 506.611 72.4147 513.18 71.484C519.04 70.5532 525.254 71.2513 531.469 71.2513Z" fill="#D1E7DD"/>
<path fill-rule="evenodd" clip-rule="evenodd" d="M570.812 51.2513C570.812 52.8801 570.812 54.2762 570.812 55.6724C570.812 165.966 570.812 276.028 570.812 386.322C570.812 394.932 568.504 399.585 562.112 400.516C556.075 401.447 549.861 400.749 543.469 400.749C543.469 399.353 543.469 397.956 543.469 396.56C543.469 286.499 543.469 176.437 543.469 66.1433C543.469 57.0685 545.955 52.4147 552.524 51.484C558.383 50.5532 564.598 51.2513 570.812 51.2513Z" fill="#D1E7DD"/>
<path fill-rule="evenodd" clip-rule="evenodd" d="M610.156 29.2513C610.156 30.8801 610.156 32.2762 610.156 33.6724C610.156 143.966 610.156 254.028 610.156 364.322C610.156 372.932 607.848 377.585 601.456 378.516C595.419 379.447 589.205 378.749 582.812 378.749C582.812 377.353 582.812 375.956 582.812 374.56C582.812 264.499 582.812 154.437 582.812 44.1433C582.812 35.0685 585.298 30.4147 591.868 29.484C597.727 28.5532 603.942 29.2513 610.156 29.2513Z" fill="#D1E7DD"/>
<path fill-rule="evenodd" clip-rule="evenodd" d="M649.5 0.251305C649.5 1.88012 649.5 3.27624 649.5 4.67236C649.5 114.966 649.5 225.028 649.5 335.322C649.5 343.932 647.192 348.585 640.8 349.516C634.763 350.447 628.548 349.749 622.156 349.749C622.156 348.353 622.156 346.956 622.156 345.56C622.156 235.499 622.156 125.437 622.156 15.1433C622.156 6.06849 624.642 1.41474 631.212 0.48399C637.071 -0.446762 643.286 0.251305 649.5 0.251305Z" fill="#D1E7DD"/>
<path fill-rule="evenodd" clip-rule="evenodd" d="M688.844 29.2513C688.844 30.8801 688.844 32.2762 688.844 33.6724C688.844 143.966 688.844 254.028 688.844 364.322C688.844 372.932 686.535 377.585 680.143 378.516C674.106 379.447 667.892 378.749 661.5 378.749C661.5 377.353 661.5 375.956 661.5 374.56C661.5 264.499 661.5 154.437 661.5 44.1433C661.5 35.0685 663.986 30.4147 670.555 29.484C676.415 28.5532 682.629 29.2513 688.844 29.2513Z" fill="#D1E7DD"/>
<path fill-rule="evenodd" clip-rule="evenodd" d="M728.188 0.251305C728.188 1.88012 728.188 3.27624 728.188 4.67236C728.188 114.966 728.188 225.028 728.188 335.322C728.188 343.932 725.879 348.585 719.487 349.516C713.45 350.447 707.236 349.749 700.844 349.749C700.844 348.353 700.844 346.956 700.844 345.56C700.844 235.499 700.844 125.437 700.844 15.1433C700.844 6.06849 703.33 1.41474 709.899 0.48399C715.758 -0.446762 721.973 0.251305 728.188 0.251305Z" fill="#D1E7DD"/>
</g>
</svg>
